nColumns=19
nRows=84
DataType=double
version=3
OpenSimVersion=4.1
endheader
time	ground_force_calcn_r_vx	ground_force_calcn_r_vy	ground_force_calcn_r_vz	ground_force_calcn_r_px	ground_force_calcn_r_py	ground_force_calcn_r_pz	ground_force_calcn_r_mx	ground_force_calcn_r_my	ground_force_calcn_r_mz	ground_force_calcn_l_vx	ground_force_calcn_l_vy	ground_force_calcn_l_vz	ground_force_calcn_l_px	ground_force_calcn_l_py	ground_force_calcn_l_pz	ground_force_calcn_l_mx	ground_force_calcn_l_my	ground_force_calcn_l_mz
0.17	0	0	0	0	0	0	0	0	0	0	0	0	0	0	0	0	0	0
0.18	0	0	0	0	0	0	0	0	0	0	0	0	0	0	0	0	0	0
0.19	0	0	0	0	0	0	0	0	0	0	0	0	0	0	0	0	0	0
0.2	0	0	0	0	0	0	0	0	0	0	0	0	0	0	0	0	0	0
0.21	0	0	0	0	0	0	0	0	0	0	0	0	0	0	0	0	0	0
0.22	0	0	0	0	0	0	0	0	0	0	0	0	0	0	0	0	0	0
0.23	0	0	0	0	0	0	0	0	0	0	0	0	0	0	0	0	0	0
0.24	0	0	0	0	0	0	0	0	0	0	0	0	0	0	0	0	0	0
0.25	0	0	0	0	0	0	0	0	0	-3.39664	33.9179	-1.04591	1.15433	0	-0.310704	0.201203	-2.00916	0.0619557
0.26	0	0	0	0	0	0	0	0	0	-9.08203	130.929	-1.12975	1.14335	0	-0.321962	0.315564	-4.54925	0.0392543
0.27	0	0	0	0	0	0	0	0	0	-20.3955	399.366	1.47542	1.14681	0	-0.321191	0.296419	-5.8042	-0.0214431
0.28	0	0	0	0	0	0	0	0	0	-53.6423	858.538	5.53161	1.14219	0	-0.316334	0.336546	-5.38638	-0.0347047
0.29	0	0	0	0	0	0	0	0	0	-118.404	1289.87	1.17676	1.13432	0	-0.311731	0.313518	-3.41542	-0.00311592
0.3	0	0	0	0	0	0	0	0	0	-183.737	1480.84	-21.5999	1.12182	0	-0.312118	0.0716658	-0.577594	0.00842492
0.31	0	0	0	0	0	0	0	0	0	-225.727	1540.53	-50.3139	1.10062	0	-0.317652	-0.309123	2.10969	-0.0689027
0.32	0	0	0	0	0	0	0	0	0	-230.252	1643.62	-57.9566	1.07113	0	-0.320862	-0.543049	3.87647	-0.13669
0.33	0	0	0	0	0	0	0	0	0	-185.605	1794.65	-43.7994	1.0367	0	-0.320085	-0.476132	4.60379	-0.112358
0.34	0	0	0	0	0	0	0	0	0	-113.635	1900.89	-34.4446	1.00367	0	-0.320397	-0.282553	4.72657	-0.0856464
0.35	0	0	0	0	0	0	0	0	0	-54.6662	1909.19	-43.0024	0.975516	0	-0.322415	-0.139167	4.86036	-0.109474
0.36	0	0	0	0	0	0	0	0	0	-10.7768	1842.86	-58.2646	0.94885	0	-0.323622	-0.0312448	5.3429	-0.168923
0.37	0	0	0	0	0	0	0	0	0	35.5067	1731.39	-68.803	0.920476	0	-0.323488	0.12509	6.09973	-0.242394
0.38	0	0	0	0	0	0	0	0	0	74.5208	1572.59	-74.4659	0.892717	0	-0.323244	0.322871	6.81346	-0.322633
0.39	0	0	0	0	0	0	0	0	0	98.9753	1366.11	-77.6095	0.866882	0	-0.323458	0.51689	7.13439	-0.405309
0.4	0	0	0	0	0	0	0	0	0	114.604	1128.14	-76.31	0.841392	0	-0.32364	0.692473	6.8166	-0.46109
0.41	0	0	0	0	0	0	0	0	0	118.407	874.326	-68.2603	0.81474	0	-0.323157	0.787457	5.81466	-0.453961
0.42	0	0	0	0	0	0	0	0	0	112.52	616.899	-55.9125	0.780953	0	-0.322701	0.780701	4.28026	-0.38794
0.43	0	0	0	0	0	0	0	0	0	103.866	381.615	-43.0674	0.731919	0	-0.324274	0.677838	2.49044	-0.28106
0.44	0	0	0	0	0	0	0	0	0	83.7088	202.102	-30.0645	0.676867	0	-0.328173	0.356463	0.860627	-0.128026
0.45	0	0	0	0	0	0	0	0	0	49.3163	89.3833	-17.165	0.64873	0	-0.331745	-0.122215	-0.221509	0.0425381
0.46	0	0	0	0	0	0	0	0	0	19.3912	33.2969	-7.51541	0.705137	0	-0.329553	-0.457047	-0.784802	0.177137
0.47	0	0	0	0	0	0	0	0	0	5.14492	11.4904	-2.73191	0.802721	0	-0.321435	-0.480093	-1.07221	0.254925
0.48	0	0	0	0	0	0	0	0	0	0	0	0	0	0	0	0	0	0
0.49	0	0	0	0	0	0	0	0	0	0	0	0	0	0	0	0	0	0
0.5	0	0	0	0	0	0	0	0	0	0	0	0	0	0	0	0	0	0
0.51	0	0	0	0	0	0	0	0	0	0	0	0	0	0	0	0	0	0
0.52	0	0	0	0	0	0	0	0	0	0	0	0	0	0	0	0	0	0
0.53	0	0	0	0	0	0	0	0	0	0	0	0	0	0	0	0	0	0
0.54	0	0	0	0	0	0	0	0	0	0	0	0	0	0	0	0	0	0
0.55	-4.51751	10.741	-3.53093	1.08194	0	-0.217126	0.13923	-0.331038	0.108824	0	0	0	0	0	0	0	0	0
0.56	-19.2969	34.235	-9.08793	1.17818	0	-0.302072	-0.476364	0.845124	-0.224344	0	0	0	0	0	0	0	0	0
0.57	-64.3444	120.417	-17.8023	1.21813	0	-0.311441	-1.16372	2.17784	-0.321968	0	0	0	0	0	0	0	0	0
0.58	-139.948	304.195	-25.8339	1.21847	0	-0.310129	-1.45512	3.16289	-0.268611	0	0	0	0	0	0	0	0	0
0.59	-173.707	556.322	-26.1382	1.19152	0	-0.311699	-1.00587	3.22146	-0.151357	0	0	0	0	0	0	0	0	0
0.6	-136.203	843.154	-13.3376	1.13552	0	-0.316624	-0.270548	1.67481	-0.0264932	0	0	0	0	0	0	0	0	0
0.61	-121.916	1126.72	12.1448	1.08525	0	-0.321421	0.122756	-1.13448	-0.0122285	0	0	0	0	0	0	0	0	0
0.62	-154.175	1344.04	41.1896	1.05287	0	-0.324201	0.461137	-4.02	-0.123198	0	0	0	0	0	0	0	0	0
0.63	-164.582	1506.5	59.812	1.02199	0	-0.326375	0.6499	-5.94884	-0.236184	0	0	0	0	0	0	0	0	0
0.64	-122.891	1650.54	63.574	0.983986	0	-0.327581	0.474874	-6.378	-0.245662	0	0	0	0	0	0	0	0	0
0.65	-62.1071	1756.69	59.7575	0.945204	0	-0.327221	0.189349	-5.3557	-0.182185	0	0	0	0	0	0	0	0	0
0.66	-6.42031	1798.18	54.9445	0.909912	0	-0.32655	0.0125429	-3.51298	-0.107341	0	0	0	0	0	0	0	0	0
0.67	48.5143	1776.38	52.0035	0.876366	0	-0.326306	-0.0455919	-1.66937	-0.048871	0	0	0	0	0	0	0	0	0
0.68	102.737	1697.29	52.5252	0.843197	0	-0.326159	-0.0259691	-0.429029	-0.0132769	0	0	0	0	0	0	0	0	0
0.69	150.553	1558.83	54.9937	0.810042	0	-0.326247	0.00142323	0.0147362	0.000519876	0	0	0	0	0	0	0	0	0
0.7	193.537	1356.99	56.1864	0.774268	0	-0.326938	-0.0212725	-0.149152	-0.00617569	0	0	0	0	0	0	0	0	0
0.71	232.104	1099.78	54.6931	0.731831	0	-0.328069	-0.112614	-0.533596	-0.0265363	0	0	0	0	0	0	0	0	0
0.72	247.698	820.022	50.9347	0.684751	0	-0.329238	-0.232183	-0.768658	-0.0477443	0	0	0	0	0	0	0	0	0
0.73	224.882	564.572	45.8686	0.644115	0	-0.329823	-0.268292	-0.673553	-0.0547228	0	0	0	0	0	0	0	0	0
0.74	178.343	359.499	39.891	0.618537	0	-0.32892	-0.138867	-0.279925	-0.0310613	0	0	0	0	0	0	0	0	0
0.75	124.773	206.967	32.3248	0.606392	0	-0.325536	0.151203	0.250808	0.0391719	0	0	0	0	0	0	0	0	0
0.76	71.1837	102.701	22.8627	0.603491	0	-0.317035	0.515097	0.743161	0.165438	0	0	0	0	0	0	0	0	0
0.77	28.1371	41.8363	13.0843	0.62353	0	-0.292972	0.799748	1.18913	0.3719	0	0	0	0	0	0	0	0	0
0.78	5.75876	13.8868	5.76079	0.679467	0	-0.231587	0.729806	1.75987	0.730063	0	0	0	0	0	0	0	0	0
0.79	0	0	0	0	0	0	0	0	0	0	0	0	0	0	0	0	0	0
0.8	0	0	0	0	0	0	0	0	0	0	0	0	0	0	0	0	0	0
0.81	0	0	0	0	0	0	0	0	0	0	0	0	0	0	0	0	0	0
0.82	0	0	0	0	0	0	0	0	0	0	0	0	0	0	0	0	0	0
0.83	0	0	0	0	0	0	0	0	0	0	0	0	0	0	0	0	0	0
0.84	0	0	0	0	0	0	0	0	0	-4.00716	11.3758	0.120806	1.11769	0	-0.287175	0.243086	-0.690087	-0.00732842
0.85	0	0	0	0	0	0	0	0	0	-17.5485	44.8215	0.958483	1.12793	0	-0.33855	1.20632	-3.08112	-0.0658881
0.86	0	0	0	0	0	0	0	0	0	-51.6168	167.886	6.21752	1.13549	0	-0.360485	1.88601	-6.13435	-0.227181
0.87	0	0	0	0	0	0	0	0	0	-97.7169	460.75	19.6269	1.13646	0	-0.361508	1.91887	-9.04775	-0.385413
0.88	0	0	0	0	0	0	0	0	0	-126.248	877.715	35.3525	1.12965	0	-0.354948	1.53611	-10.6795	-0.430148
0.89	0	0	0	0	0	0	0	0	0	-138.894	1193.62	32.6025	1.11477	0	-0.350176	1.21892	-10.4751	-0.286117
0.9	0	0	0	0	0	0	0	0	0	-165.488	1313.12	1.23962	1.09418	0	-0.352842	1.11605	-8.85567	-0.00835998
0.91	0	0	0	0	0	0	0	0	0	-197.625	1378.11	-30.3986	1.0688	0	-0.359315	0.99641	-6.94833	0.153267
0.92	0	0	0	0	0	0	0	0	0	-196.844	1510.03	-28.8499	1.0362	0	-0.360333	0.75044	-5.75678	0.109986
0.93	0	0	0	0	0	0	0	0	0	-148.193	1672.58	-5.26006	0.996922	0	-0.35808	0.474854	-5.35945	0.0168548
0.94	0	0	0	0	0	0	0	0	0	-85.9548	1766.74	5.5041	0.9593	0	-0.359076	0.246978	-5.07647	-0.0158152
0.95	0	0	0	0	0	0	0	0	0	-37.6939	1768.7	-4.39724	0.925095	0	-0.362284	0.0884135	-4.1486	0.010314
0.96	0	0	0	0	0	0	0	0	0	13.8925	1722.31	-18.4631	0.889619	0	-0.362973	-0.0179105	-2.22044	0.023803
0.97	0	0	0	0	0	0	0	0	0	76.9935	1639.6	-28.5301	0.852088	0	-0.360914	0.0262237	0.55844	-0.00971725
0.98	0	0	0	0	0	0	0	0	0	140.578	1502.23	-38.5789	0.813581	0	-0.358815	0.341595	3.65031	-0.093744
0.99	0	0	0	0	0	0	0	0	0	202.19	1314.86	-49.1735	0.771606	0	-0.357297	0.972153	6.32197	-0.236432
1	0	0	0	0	0	0	0	0	0	249.876	1101.86	-54.7651	0.727178	0	-0.355361	1.79393	7.91061	-0.393175
